<svg version="1.1" id="Layer_1" xmlns="http://www.w3.org/2000/svg" xmlns:xlink="http://www.w3.org/1999/xlink" x="0px" y="0px"
	 width="100%" viewBox="0 0 1024 1024" enable-background="new 0 0 1024 1024" xml:space="preserve">
<defs>
  <linearGradient id="rainbow" x1="100" y1="800" x2="900" y2="200" gradientUnits="userSpaceOnUse">
    <stop offset="0%" stop-color="#ff4d2e"/>
    <stop offset="20%" stop-color="#ffb800"/>
    <stop offset="40%" stop-color="#66ff33"/>
    <stop offset="60%" stop-color="#00e6cc"/>
    <stop offset="80%" stop-color="#3366ff"/>
    <stop offset="100%" stop-color="#5a3cff"/>

    <animate attributeName="x1" values="0;200;0" dur="6s" repeatCount="indefinite"/>
    <animate attributeName="y1" values="900;750;900" dur="6s" repeatCount="indefinite"/>
    <animate attributeName="x2" values="1000;800;1000" dur="6s" repeatCount="indefinite"/>
    <animate attributeName="y2" values="100;250;100" dur="6s" repeatCount="indefinite"/>
  </linearGradient>
  <filter id="softGlow" x="-30%" y="-30%" width="160%" height="160%">
    <feGaussianBlur in="SourceGraphic" stdDeviation="12" result="blur"/>
    <feColorMatrix
      in="blur"
      type="matrix"
      values="
        1 0 0 0 0
        0 1 0 0 0
        0 0 1 0 0
        0 0 0 0.30 0"
      result="softGlow"/>
    <feMerge>
      <feMergeNode in="softGlow"/>
      <feMergeNode in="SourceGraphic"/>
    </feMerge>
  </filter>
</defs>
<rect x="0" y="0" width="1024" height="1024" rx="180" ry="180" fill="#ffffff"/>
<path fill="url(#rainbow)" filter="url(#softGlow)" opacity="1.000000" stroke="none"
	d="
M879.080078,473.970520 
	C857.130859,459.611420 833.503906,450.662048 807.932556,446.790710 
	C763.508362,440.065063 722.213562,448.571686 683.867188,471.946564 
	C680.007019,474.299591 679.267761,476.453583 680.786987,480.745117 
	C690.051758,506.915314 695.064514,534.030640 698.016357,561.567078 
	C698.104187,562.386414 698.169983,563.228516 696.696899,564.201904 
	C679.535461,483.163116 638.051453,417.528992 571.206299,369.038727 
	C504.422180,320.592743 429.303162,302.241180 347.301422,311.510773 
	C372.002808,333.090851 399.928894,349.330322 428.767487,364.689819 
	C395.025543,362.723389 361.612457,363.002075 329.785309,375.718048 
	C298.088013,388.382172 271.826721,409.231659 246.854156,432.417450 
	C251.189484,415.852783 255.395905,399.458527 258.681824,382.855927 
	C261.949677,366.344604 264.660675,349.751770 264.910889,332.548981 
	C187.124542,364.812683 129.742355,418.372650 95.075127,494.823090 
	C60.493671,571.084351 56.917274,649.557312 83.343147,729.567017 
	C80.804848,729.311890 80.580307,727.438293 79.979836,726.111084 
	C65.338463,693.749939 54.636295,660.160461 50.975468,624.753662 
	C41.015102,528.418640 67.161148,443.162659 131.178589,370.156769 
	C166.795578,329.539001 210.464584,300.287109 261.080383,281.441254 
	C264.153198,280.297180 265.365814,279.051453 264.979706,275.344971 
	C261.637207,243.259735 254.536362,212.039215 244.157730,181.530396 
	C243.731201,180.276550 243.376160,178.995499 243.060867,177.709213 
	C242.999420,177.458603 243.277222,177.124832 243.441132,176.725723 
	C245.871552,177.186111 246.095627,179.483566 246.907135,181.102570 
	C261.969818,211.153305 280.184082,239.176056 300.926422,265.596954 
	C302.820831,268.009979 304.623169,268.672943 307.728455,268.021790 
	C334.593323,262.388580 361.822174,260.309875 389.171509,261.862762 
	C463.805939,266.100586 529.913513,292.071686 586.630981,341.063202 
	C624.066528,373.399323 652.304077,412.558594 672.085022,457.860596 
	C672.541687,458.906403 673.142029,459.889496 673.867493,461.266541 
	C726.092651,421.379852 783.772400,409.249451 846.781494,428.018036 
	C892.649902,441.680939 927.883606,470.065918 952.122009,511.217377 
	C1000.343506,593.086792 973.685913,683.262939 932.296204,725.485962 
	C933.651367,723.149475 934.945618,720.775146 936.371033,718.482361 
	C950.437256,695.857239 958.053406,671.098511 960.784729,644.728027 
	C964.732727,606.610962 957.123230,570.838196 938.549255,537.427551 
	C924.111633,511.457336 904.114929,490.569061 879.080078,473.970520 
z"/>
<path fill="#000000" opacity="1.000000" stroke="none" 
	d="
M648.798767,629.305664 
	C641.315369,629.374756 641.317688,629.374756 641.317200,636.446411 
	C641.316528,645.776367 641.355591,655.106567 641.293213,664.436096 
	C641.253662,670.356079 638.231018,674.039612 633.500610,674.174866 
	C628.895264,674.306519 625.721130,670.512939 625.685242,664.587891 
	C625.623657,654.425293 625.574585,644.260803 625.715515,634.099854 
	C625.762756,630.696655 624.607910,629.324829 621.106934,629.347900 
	C604.280457,629.458740 587.452332,629.484253 570.626282,629.349976 
	C566.921570,629.320435 566.172791,630.968567 566.211304,634.206909 
	C566.333984,644.534851 566.406860,654.868652 566.190430,665.193665 
	C566.043640,672.199524 560.422668,675.947937 554.747559,673.240417 
	C551.609741,671.743286 550.648254,669.140381 550.656860,665.886719 
	C550.682495,656.223816 550.653137,646.560669 550.640503,636.897644 
	C550.630676,629.372009 550.627502,629.374756 543.340027,629.337708 
	C540.507874,629.323303 537.668823,629.411133 534.845398,629.243286 
	C530.524902,628.986328 528.203247,626.431702 527.739807,622.265442 
	C527.279663,618.128296 529.826904,614.750793 534.142700,614.173706 
	C537.422791,613.734985 540.789062,613.899353 544.117615,613.874329 
	C550.539062,613.825989 550.614441,613.796326 550.619324,607.521912 
	C550.638367,583.030945 550.637207,558.539917 550.662292,534.048950 
	C550.664673,531.738403 550.321716,529.306335 551.981934,527.342590 
	C554.066162,524.877380 556.631470,523.609680 559.936584,524.523926 
	C563.718201,525.570068 566.030640,527.974731 566.213501,531.951111 
	C566.389404,535.775085 566.265991,539.613098 566.266663,543.444946 
	C566.270142,564.603882 566.269775,585.762878 566.274414,606.921814 
	C566.276001,613.921021 566.281006,613.926147 573.043457,613.914001 
	C588.704102,613.885925 604.366577,613.712219 620.024292,613.911804 
	C624.357666,613.967041 625.788574,612.756042 625.754395,608.292175 
	C625.562988,583.302795 625.868225,558.308411 625.532471,533.322021 
	C625.440857,526.505127 631.202332,523.144470 635.831360,524.678833 
	C640.498840,526.226013 641.327393,529.899841 641.320312,534.208252 
	C641.280945,558.199402 641.277161,582.190735 641.327087,606.181885 
	C641.340698,612.720276 639.813782,614.212280 648.811035,613.989990 
	C654.098572,613.859436 657.116089,616.783447 657.302979,621.178894 
	C657.504456,625.918823 654.980591,628.460876 648.798767,629.305664 
z"/>
<path fill="#000000" opacity="1.000000" stroke="none" 
	d="
M743.453979,661.686951 
	C757.195007,662.794739 769.811279,660.672241 781.391663,653.762207 
	C788.966919,649.242004 793.464722,642.936707 792.838562,633.692078 
	C792.692383,631.534790 792.820129,629.360168 792.785950,627.194031 
	C792.633728,617.534546 794.203369,618.254822 783.523682,618.239258 
	C768.524841,618.217346 753.525879,618.252869 738.526978,618.245667 
	C736.696411,618.244812 734.837036,618.314636 733.041565,618.031067 
	C729.645874,617.494751 727.747253,615.388367 727.557922,611.918091 
	C727.354065,608.180908 729.243958,605.872192 732.797791,605.102722 
	C734.562622,604.720581 736.440796,604.781433 738.267822,604.780396 
	C754.766541,604.771240 771.265320,604.773376 787.763916,604.824646 
	C790.501038,604.833191 792.739563,604.339294 794.995728,602.354797 
	C799.084900,598.757935 805.146973,600.854919 805.471130,606.269043 
	C806.225891,618.874084 807.124146,631.595154 804.532837,644.094055 
	C802.929993,651.825256 797.588440,657.408569 791.418030,661.811218 
	C755.062988,687.750671 707.755005,673.841980 690.745789,638.136780 
	C680.147583,615.889282 685.456482,587.858032 703.925842,570.732910 
	C727.021667,549.318176 760.882019,546.172119 787.573181,562.966675 
	C788.559692,563.587463 789.546021,564.218018 790.472778,564.922424 
	C793.759827,567.420837 794.624573,570.712585 792.405273,574.113586 
	C790.248535,577.418579 787.046692,577.715576 783.686401,575.560547 
	C775.880493,570.554321 767.490479,567.317871 758.240662,565.832581 
	C730.987488,561.456604 704.341003,579.444153 698.716309,606.363403 
	C694.853516,624.850464 705.650635,645.402405 724.584167,655.605469 
	C730.362305,658.719177 736.511414,660.701111 743.453979,661.686951 
z"/>
<path fill="#000000" opacity="1.000000" stroke="none" 
	d="
M110.447029,671.129150 
	C109.248245,663.893555 113.098785,660.177185 120.236885,661.385559 
	C138.006744,664.393555 155.396286,663.460876 172.231232,656.576599 
	C177.182816,654.551758 181.969543,652.154419 185.897888,648.437500 
	C192.630692,642.067078 192.480423,636.299683 185.399643,630.476074 
	C168.418671,616.510071 151.368256,602.628479 134.390503,588.658569 
	C131.695175,586.440735 129.039139,584.116211 126.695824,581.540039 
	C118.310440,572.321411 117.767464,559.925842 125.248474,550.001282 
	C133.655762,538.848022 145.447998,532.790161 158.404694,528.895142 
	C173.579559,524.333252 189.102936,523.159851 204.815628,525.739685 
	C206.281204,525.980286 207.802841,526.294983 209.120987,526.938721 
	C212.823944,528.746948 214.639084,531.733154 213.617706,535.884827 
	C212.524445,540.328613 209.141937,542.559937 204.660431,541.807861 
	C187.161301,538.871460 170.160233,540.519470 153.722565,547.270630 
	C148.778458,549.301208 144.011719,551.742004 140.192719,555.600098 
	C134.390305,561.461853 134.316299,567.494263 140.658447,572.783691 
	C155.880310,585.478943 171.372620,597.849670 186.735641,610.376099 
	C190.350189,613.323242 193.994064,616.248657 197.436661,619.389832 
	C209.107224,630.038757 209.697266,644.589417 198.721161,656.001953 
	C187.938080,667.213806 174.183914,672.874207 159.294800,676.191711 
	C146.282532,679.091003 133.179779,678.894287 120.072617,677.093933 
	C116.254181,676.569519 112.506599,675.476013 110.447029,671.129150 
z"/>
<path fill="#000000" opacity="1.000000" stroke="none" 
	d="
M222.669495,604.970947 
	C227.982117,574.033020 252.164398,552.434937 282.917542,552.233215 
	C315.788635,552.017517 341.073395,576.565552 344.441010,605.304260 
	C347.618622,632.421753 336.888702,652.797852 314.216522,666.784668 
	C292.807678,679.992126 265.956909,678.157959 245.876465,662.212769 
	C227.749664,647.818970 219.730988,628.705566 222.669495,604.970947 
M235.067093,612.607910 
	C233.597412,637.810425 256.580048,663.930176 286.747498,661.981140 
	C316.014709,660.090271 337.964325,631.507568 331.101074,602.985352 
	C325.513153,579.763306 302.770569,563.237061 279.451202,565.453247 
	C254.969299,567.779968 236.705811,586.820374 235.067093,612.607910 
z"/>
<path fill="#000000" opacity="1.000000" stroke="none" 
	d="
M497.431549,556.243408 
	C517.550964,562.296936 523.459778,581.392883 517.637878,601.037659 
	C514.945251,610.123047 509.402985,617.419739 501.592163,622.710938 
	C498.470856,624.825317 498.326538,626.512512 500.004700,629.586304 
	C505.990082,640.549255 511.757172,651.632019 517.544861,662.701904 
	C518.685974,664.884521 519.989258,667.093384 518.617920,669.765198 
	C516.095703,674.679382 510.055664,674.909729 507.088409,669.793335 
	C502.662537,662.161987 498.713806,654.254578 494.527466,646.483276 
	C491.842529,641.499023 490.119965,635.347839 486.094635,631.912231 
	C481.862701,628.300232 475.340179,632.026794 469.795990,631.381104 
	C466.635498,631.012939 463.466583,631.178833 460.250793,627.659790 
	C460.250793,630.492065 460.250854,632.222595 460.250763,633.953064 
	C460.250092,644.783386 460.371765,655.615723 460.191742,666.443054 
	C460.113953,671.121277 457.400299,673.743835 453.531799,673.497620 
	C449.088562,673.214783 447.646515,670.328613 447.647369,666.333252 
	C447.655029,629.675537 447.679077,593.017822 447.649292,556.360107 
	C447.646820,553.343506 448.686249,551.105408 451.571777,550.109558 
	C454.298584,549.168457 457.023743,549.412659 458.695557,552.038513 
	C460.329529,554.604980 462.637695,554.591125 465.200836,554.695740 
	C475.817932,555.128479 486.534149,553.383240 497.431549,556.243408 
M460.323364,570.978394 
	C460.323364,587.356995 460.323364,603.735596 460.323364,620.673706 
	C465.949005,615.910889 472.504211,619.239685 478.210754,616.968262 
	C477.371429,612.979431 477.434784,609.444824 481.741302,607.608765 
	C485.900269,605.835815 488.296356,608.051697 490.419067,611.212341 
	C492.091125,613.701965 493.813171,612.365784 495.437622,611.055786 
	C500.928741,606.627747 504.691010,601.028442 506.314636,594.161377 
	C509.592712,580.296631 503.197723,570.411560 489.207520,568.020142 
	C480.639740,566.555481 471.942902,567.600708 463.305634,567.445435 
	C461.558655,567.414001 460.474731,568.254272 460.323364,570.978394 
z"/>
<path fill="#000000" opacity="1.000000" stroke="none" 
	d="
M414.970154,638.367798 
	C407.643677,638.377075 400.807129,638.529236 393.980652,638.332092 
	C390.680786,638.236816 389.556061,639.450439 389.636230,642.654175 
	C389.827820,650.307983 389.913513,657.968445 389.818115,665.623413 
	C389.780640,668.632202 389.271149,671.710266 385.889130,673.093994 
	C381.136017,675.038635 377.113464,672.251892 376.920044,666.463684 
	C376.669708,658.972717 376.607330,651.459717 376.894257,643.972656 
	C377.061584,639.606750 375.667664,637.910889 371.220184,638.277649 
	C367.248016,638.605164 363.226959,638.320923 359.227631,638.342346 
	C354.953552,638.365234 352.487091,635.901062 352.251984,632.025146 
	C352.007324,627.992432 354.558014,625.474487 358.696533,625.265930 
	C362.849976,625.056702 367.090759,624.699829 371.165039,625.291260 
	C375.924225,625.981995 376.951263,624.145447 376.842224,619.892273 
	C376.581512,609.721252 376.965851,599.635803 380.688507,589.898865 
	C388.546875,569.344788 410.103210,553.843628 431.449432,553.688416 
	C437.999725,553.640808 440.256805,555.686890 440.264587,562.213684 
	C440.305023,596.042603 440.276001,629.871582 440.243134,663.700562 
	C440.241699,665.188965 440.123322,666.713806 439.786682,668.158142 
	C438.975128,671.640076 436.921570,673.843689 433.096161,673.497986 
	C429.235474,673.148987 427.667572,670.656067 427.652008,666.998962 
	C427.620789,659.666809 427.625214,652.334412 427.593567,645.002258 
	C427.564941,638.372131 427.552399,638.370972 420.963745,638.360718 
	C419.130554,638.357849 417.297394,638.364685 414.970154,638.367798 
M390.012390,611.551697 
	C389.999023,614.715820 390.086884,617.884460 389.944092,621.042725 
	C389.798584,624.261353 390.976868,625.303345 394.343414,625.205566 
	C403.660889,624.935181 413.003845,624.822998 422.311005,625.232422 
	C426.740173,625.427246 427.713715,623.870728 427.670288,619.877075 
	C427.509216,605.062073 427.627808,590.244263 427.568512,575.427795 
	C427.558136,572.840515 427.843994,570.103455 426.004578,567.925476 
	C408.237823,569.172729 389.206238,588.565735 390.012390,611.551697 
z"/>
<path fill="#000000" opacity="1.000000" stroke="none" 
	d="
M903.327087,608.995544 
	C903.326904,611.659546 903.326111,613.824890 903.326782,615.990173 
	C903.329224,623.814209 903.317566,623.868896 911.011292,625.535522 
	C914.476685,626.286194 916.211609,628.355835 916.247986,631.790771 
	C916.285156,635.297974 914.277954,637.330261 911.008728,638.138611 
	C909.894287,638.414185 908.685730,638.468079 907.533325,638.400391 
	C904.266907,638.208557 903.200012,639.697754 903.272278,642.894104 
	C903.445251,650.552124 903.378113,658.216919 903.317688,665.878296 
	C903.276367,671.116455 901.117004,673.683411 896.943359,673.523743 
	C892.214539,673.342834 890.746399,670.264893 890.723511,666.113464 
	C890.682190,658.618408 890.555481,651.119141 890.756897,643.629456 
	C890.858643,639.844666 889.730225,638.234070 885.683289,638.295349 
	C873.194092,638.484375 860.699036,638.454590 848.208740,638.307312 
	C844.459229,638.263123 843.242249,639.770813 843.312439,643.356079 
	C843.462341,651.014709 843.295288,658.679077 843.346863,666.340454 
	C843.374451,670.441956 841.807556,673.137573 837.446289,673.462219 
	C833.399048,673.763428 830.939331,671.379883 830.807251,666.522583 
	C830.598999,658.866272 830.569641,651.196655 830.774536,643.541016 
	C830.876648,639.728088 829.788330,637.876892 825.699158,638.335999 
	C823.562378,638.575989 821.370422,638.428894 819.209534,638.326233 
	C815.299744,638.140503 812.961243,636.048523 812.718262,632.142700 
	C812.473328,628.205505 814.386292,625.839661 818.490356,625.509888 
	C819.816772,625.403381 821.136841,625.050293 822.457214,625.063965 
	C831.591858,625.158325 830.666992,625.180542 830.690002,616.453491 
	C830.735229,599.297729 830.710388,582.141785 830.722168,564.985901 
	C830.723328,563.320801 830.647461,561.640991 830.834045,559.993652 
	C831.260620,556.226135 833.141785,553.611572 837.224060,553.782715 
	C841.148376,553.947205 843.256104,556.315002 843.323730,560.271973 
	C843.394836,564.434753 843.349060,568.599609 843.349304,572.763550 
	C843.350281,588.586914 843.464600,604.411743 843.268127,620.232727 
	C843.218628,624.216553 844.411804,625.328857 848.402649,625.223328 
	C860.554260,624.902283 872.721619,624.832520 884.874390,625.080261 
	C889.580078,625.176147 890.817871,623.528137 890.767761,619.023560 
	C890.563965,600.704102 890.695923,582.380920 890.710571,564.059082 
	C890.711792,562.560730 890.613464,561.042053 890.816528,559.567993 
	C891.351196,555.686401 893.644897,553.507263 897.591797,553.778625 
	C901.270203,554.031494 903.311096,556.232178 903.320312,560.027161 
	C903.343018,569.354553 903.335632,578.682007 903.336121,588.009460 
	C903.336548,594.838562 903.330383,601.667725 903.327087,608.995544 
z"/>
<path fill="#000000" opacity="1.000000" stroke="none" 
	d="
M678.374634,602.000122 
	C678.368408,622.991028 678.368103,643.481934 678.344238,663.972839 
	C678.342285,665.633118 678.416382,667.350037 678.037476,668.941162 
	C677.344360,671.851685 675.348328,673.476135 672.289795,673.543823 
	C669.281860,673.610413 667.059204,672.248169 666.223938,669.347412 
	C665.728333,667.626160 665.697021,665.730896 665.695557,663.913696 
	C665.668457,630.261902 665.677246,596.610107 665.679749,562.958313 
	C665.679810,562.291992 665.681152,561.625122 665.707458,560.959534 
	C665.866699,556.933044 667.713440,554.212830 671.896729,553.856079 
	C675.669800,553.534302 678.332458,556.527649 678.352478,561.018188 
	C678.412537,574.511902 678.374390,588.006104 678.374634,602.000122 
z"/>
<path fill="#000000" opacity="1.000000" stroke="none" 
	d="
M504.606079,740.662842 
	C507.123474,735.173828 509.566681,730.064209 511.831299,724.876587 
	C512.945007,722.325439 514.692444,721.346985 517.356201,721.815491 
	C520.148071,722.306519 519.917480,724.593689 519.926819,726.505249 
	C519.976562,736.667847 519.945435,746.831238 519.873535,756.993835 
	C519.858215,759.159851 519.879578,761.684814 516.652588,761.492126 
	C513.698914,761.315796 514.107910,758.884521 514.097046,756.957153 
	C514.051086,748.837524 514.077576,740.717529 514.077576,732.234436 
	C509.101929,741.843567 505.839081,751.976501 500.411957,761.060181 
	C500.266113,761.304260 499.851685,761.387878 498.691742,762.023376 
	C493.169495,753.081055 490.045197,742.937195 484.327240,733.645996 
	C484.327240,737.295532 484.337189,740.945068 484.324707,744.594482 
	C484.309357,749.092773 484.279449,753.591064 484.247284,758.089355 
	C484.234253,759.914246 483.779816,761.510803 481.582275,761.566040 
	C479.399231,761.621094 478.781189,760.128845 478.783752,758.250610 
	C478.798706,747.255066 478.815155,736.259399 478.856659,725.263977 
	C478.863495,723.454163 479.384705,721.986145 481.560150,721.757202 
	C484.080750,721.492065 486.054932,721.892761 487.206940,724.611816 
	C490.324707,731.970703 493.611542,739.258179 496.863861,746.559570 
	C497.522614,748.038513 497.846710,749.760864 499.645081,750.799377 
	C501.943298,747.846191 502.746399,744.192627 504.606079,740.662842 
z"/>
<path fill="#000000" opacity="1.000000" stroke="none" 
	d="
M304.366516,759.973938 
	C295.461700,754.097961 292.411499,742.000610 296.962067,731.800903 
	C300.888611,722.999939 309.830872,719.072571 319.894745,721.729187 
	C328.128601,723.902588 333.835999,732.788269 333.117889,742.315552 
	C331.892639,758.570129 319.906921,766.095154 304.366516,759.973938 
M325.257629,750.535950 
	C327.390656,746.132446 327.160217,741.430725 326.561218,736.831970 
	C325.692474,730.162537 320.876465,726.248718 314.185608,726.239624 
	C305.284210,726.227539 300.213654,733.152222 301.095703,744.116028 
	C301.573364,750.053528 305.073792,755.165894 309.589813,756.521973 
	C315.603027,758.327454 320.761414,756.531433 325.257629,750.535950 
z"/>
<path fill="#000000" opacity="1.000000" stroke="none" 
	d="
M569.889282,848.694763 
	C569.808655,837.591064 569.906860,826.953552 569.732544,816.320496 
	C569.668457,812.410950 571.285339,810.824707 575.031372,811.000183 
	C577.352600,811.108948 579.686523,811.044312 581.997559,811.250488 
	C586.439575,811.646851 590.462830,812.624878 592.416382,817.486938 
	C594.377747,822.368713 592.108215,825.781799 588.707397,829.355286 
	C592.202576,832.274170 595.539368,835.354614 595.118225,840.338501 
	C594.857605,843.422302 593.488159,846.090393 591.163696,848.163208 
	C586.652405,852.186218 573.724182,852.764648 569.889282,848.694763 
M575.761169,844.649658 
	C580.650269,846.861450 586.086426,846.301453 587.930420,843.177368 
	C589.374023,840.731812 589.542419,837.963684 587.662537,835.698730 
	C584.930176,832.406677 580.978394,832.997925 577.430176,833.515320 
	C574.342041,833.965637 575.551575,836.906860 575.380920,838.877136 
	C575.238525,840.521545 575.428223,842.194763 575.761169,844.649658 
M581.194702,816.367310 
	C578.356201,816.323242 574.958252,815.786926 575.475464,820.260559 
	C575.771973,822.825195 573.334534,826.628906 578.024414,827.648010 
	C582.164490,828.547668 586.239929,826.422363 586.806580,823.069031 
	C587.436462,819.342224 585.998047,816.905518 581.194702,816.367310 
z"/>
<path fill="#000000" opacity="1.000000" stroke="none" 
	d="
M729.797668,748.312256 
	C732.308411,752.584473 735.308594,756.174866 737.074951,760.871521 
	C733.843994,762.388367 731.576233,761.702942 729.831238,758.852173 
	C727.751221,755.454163 725.661194,752.061646 723.524414,748.699219 
	C721.858032,746.077087 719.484253,744.604675 716.358948,745.448853 
	C713.054443,746.341614 714.566040,749.271240 714.356995,751.356140 
	C714.109375,753.825500 714.277588,756.334229 714.197571,758.823669 
	C714.140015,760.613037 713.055542,761.591187 711.348267,761.652649 
	C709.427979,761.721863 708.764771,760.408569 708.762451,758.717712 
	C708.747009,747.421997 708.750244,736.126282 708.761292,724.830566 
	C708.763245,722.808777 709.825195,721.771545 711.844238,721.748474 
	C714.501709,721.718140 717.159607,721.678040 719.817017,721.696045 
	C727.228943,721.746216 730.802979,723.774780 732.615051,728.914612 
	C734.458069,734.142456 732.766663,738.262146 726.824768,742.909973 
	C726.916077,745.038208 728.709229,746.290771 729.797668,748.312256 
M714.324585,730.843323 
	C714.287354,739.577942 717.498962,742.284241 723.830444,738.831543 
	C726.427185,737.415588 727.773865,735.178406 727.321716,732.244141 
	C726.878662,729.369141 725.295227,727.060913 722.112549,727.186951 
	C719.348511,727.296509 715.472351,725.045288 714.324585,730.843323 
z"/>
<path fill="#000000" opacity="1.000000" stroke="none" 
	d="
M355.295410,752.129883 
	C354.417236,754.342346 353.630219,756.184875 353.045013,758.089417 
	C352.040466,761.358643 350.086334,762.244385 347.041443,760.820190 
	C346.299133,759.395142 346.916595,758.166931 347.389923,756.934387 
	C351.448517,746.366028 355.530457,735.806580 359.560059,725.227295 
	C360.322906,723.224487 361.228851,721.681458 363.749115,721.707336 
	C366.023590,721.730713 366.966919,723.079407 367.662323,724.904175 
	C372.048798,736.414551 376.449341,747.919617 380.816528,759.437256 
	C380.975769,759.857239 380.836792,760.390198 380.836792,761.009888 
	C377.370514,762.343628 375.163239,761.547302 373.932556,757.842407 
	C373.075134,755.261047 373.097443,751.245667 369.992340,750.861023 
	C365.228302,750.270874 360.142883,749.082214 355.295410,752.129883 
M366.364716,737.110046 
	C365.450439,734.965820 365.156250,732.509277 363.186279,730.186707 
	C361.259491,735.532227 359.550323,740.273987 357.647858,745.552002 
	C361.885284,745.465271 365.298401,746.576416 368.462921,744.726746 
	C368.811737,741.968323 367.174957,740.050903 366.364716,737.110046 
z"/>
<path fill="#000000" opacity="1.000000" stroke="none" 
	d="
M561.165894,733.924438 
	C564.652832,743.063293 568.013062,751.837463 571.416321,760.723877 
	C567.131042,762.494629 565.285156,760.836487 564.045776,757.530396 
	C563.138062,755.109192 563.037537,751.605896 560.251892,750.895264 
	C555.938049,749.794739 551.262878,749.801575 546.938354,750.846558 
	C544.083740,751.536316 544.053589,755.064392 543.302734,757.512512 
	C542.287415,760.822510 540.640076,762.379883 537.126465,760.917480 
	C536.119446,759.401123 537.021118,758.041748 537.533081,756.696350 
	C541.428223,746.460510 545.347351,736.233765 549.280701,726.012573 
	C550.054626,724.001343 550.705139,721.861267 553.491028,721.756531 
	C556.565369,721.640869 557.275574,724.025269 558.175110,726.128052 
	C559.218567,728.567322 560.091980,731.079285 561.165894,733.924438 
M554.333801,745.699463 
	C558.373718,746.046265 559.431824,744.434448 557.822144,740.708984 
	C556.391907,737.398560 555.217651,733.977478 553.658264,729.892334 
	C551.304260,735.195679 549.463196,739.817139 548.318970,744.446350 
	C550.172729,746.151184 551.912720,745.519714 554.333801,745.699463 
z"/>
<path fill="#000000" opacity="1.000000" stroke="none" 
	d="
M520.658569,819.107300 
	C520.662292,817.793945 520.604187,816.956177 520.681335,816.131042 
	C520.868225,814.131226 519.986206,811.211670 523.401489,811.394165 
	C526.522278,811.560974 526.018188,814.356506 526.045471,816.420654 
	C526.135681,823.241760 525.938354,830.070496 526.178589,836.884766 
	C526.415894,843.616028 529.957703,846.919495 536.117310,846.702515 
	C541.587097,846.509888 544.554871,843.108032 544.658813,836.611694 
	C544.767944,829.790466 544.660034,822.965942 544.741699,816.143982 
	C544.766174,814.102295 544.156311,811.347473 547.445129,811.261841 
	C550.682434,811.177551 550.376831,813.787231 550.377930,815.934814 
	C550.381348,822.757507 550.425537,829.581787 550.299683,836.402588 
	C550.113159,846.507690 544.471497,852.150146 534.847717,852.035889 
	C525.545776,851.925415 520.747681,846.725769 520.655457,836.562256 
	C520.604065,830.904846 520.653992,825.246521 520.658569,819.107300 
z"/>
<path fill="#000000" opacity="1.000000" stroke="none" 
	d="
M675.115234,728.046021 
	C674.703979,728.837036 674.487000,729.309143 674.452209,729.794312 
	C673.817200,738.651123 673.821838,738.649536 682.647949,738.735718 
	C683.813599,738.747131 684.980286,738.762756 686.144165,738.822205 
	C687.690063,738.901123 688.706787,739.675293 688.703552,741.279480 
	C688.700256,742.898926 687.576721,743.691833 686.112671,743.766357 
	C683.455017,743.901611 680.776245,744.043823 678.129395,743.856873 
	C675.240723,743.652893 674.162109,744.842163 674.347900,747.606445 
	C674.448181,749.099060 674.471558,750.613586 674.340515,752.101624 
	C674.030334,755.622498 675.639648,756.901428 679.051270,756.690735 
	C681.871216,756.516541 684.712830,756.695435 687.544861,756.715576 
	C689.223816,756.727478 690.550049,757.229797 690.607361,759.186462 
	C690.656311,760.856689 689.555054,761.654907 688.084534,761.673218 
	C682.594849,761.741760 677.101196,761.787231 671.614136,761.645264 
	C669.237305,761.583740 668.803528,759.698975 668.807617,757.698120 
	C668.829163,747.035706 668.838196,736.373352 668.864014,725.710938 
	C668.869385,723.487427 669.471558,721.730042 672.184875,721.737549 
	C676.849121,721.750427 681.513794,721.718262 686.177490,721.770508 
	C687.789124,721.788513 689.176025,722.272827 689.208679,724.282715 
	C689.240967,726.266052 687.910156,726.757935 686.290527,726.967590 
	C682.672852,727.436157 678.955322,726.473999 675.115234,728.046021 
z"/>
<path fill="#000000" opacity="1.000000" stroke="none" 
	d="
M589.372192,739.556824 
	C582.952026,731.668030 585.450012,723.983032 594.859192,721.501038 
	C598.149414,720.633179 601.424561,720.578918 604.741211,721.334473 
	C608.144348,722.109741 608.899353,724.108765 607.735168,727.390320 
	C604.279297,727.239441 601.149780,725.838257 597.794983,726.247498 
	C594.936829,726.596252 592.431580,727.446411 591.621582,730.414185 
	C590.776489,733.510559 592.795532,735.445923 595.191650,736.879822 
	C598.473694,738.843811 601.979370,740.460205 605.138367,742.596497 
	C608.633301,744.959961 610.825806,748.294128 610.085388,752.780579 
	C609.331970,757.345825 606.486023,760.123230 602.117981,761.473022 
	C597.660217,762.850647 593.241821,762.528748 588.840271,761.265503 
	C585.330200,760.258118 584.566101,758.073120 586.119202,754.543945 
	C590.052429,755.751892 593.725830,757.430420 597.808044,756.953186 
	C600.382751,756.652222 602.909363,756.279907 603.715576,753.312805 
	C604.524353,750.336487 603.212463,748.043213 600.768738,746.487488 
	C597.122742,744.166260 593.362488,742.024658 589.372192,739.556824 
z"/>
<path fill="#000000" opacity="1.000000" stroke="none" 
	d="
M397.324249,727.537109 
	C401.665497,721.811279 409.320618,719.429077 415.743774,721.357422 
	C418.778259,722.268433 419.646667,724.103821 418.793060,727.311584 
	C415.670654,727.981323 412.832703,725.868835 409.693359,726.146790 
	C406.528625,726.427002 403.497192,726.836548 402.496124,730.282288 
	C401.467560,733.822754 403.919708,735.862122 406.612396,737.434021 
	C409.481079,739.108765 412.557648,740.441040 415.359375,742.213806 
	C419.348877,744.738159 421.275513,748.409424 420.494110,753.238525 
	C419.731293,757.953003 416.638214,760.298767 412.282379,761.551697 
	C407.947357,762.798584 403.726868,762.319702 399.504517,761.176575 
	C396.308929,760.311462 395.361084,758.262268 396.371063,754.917297 
	C400.179657,754.745117 403.286469,757.347168 407.010864,757.019165 
	C410.283875,756.730957 413.572601,756.681824 414.583557,752.806519 
	C415.533051,749.166931 412.928284,747.339417 410.280457,745.761780 
	C407.427460,744.061890 404.363342,742.681213 401.649384,740.790833 
	C396.617371,737.285828 395.582855,733.948730 397.324249,727.537109 
z"/>
<path fill="#000000" opacity="1.000000" stroke="none" 
	d="
M770.773560,760.004883 
	C765.424988,762.960083 760.220886,762.591431 754.885559,761.363586 
	C751.311829,760.541260 750.378906,758.494324 751.270203,754.889954 
	C755.019897,755.133667 758.246033,757.223511 761.925720,757.052979 
	C765.238159,756.899536 768.490845,756.683960 769.515320,752.833679 
	C770.488098,749.177612 767.856079,747.366699 765.203796,745.787415 
	C762.057861,743.914185 758.646301,742.418762 755.720459,740.257812 
	C748.477417,734.908020 749.659302,725.972107 757.955139,722.378113 
	C762.069580,720.595581 766.311890,720.423523 770.672546,721.546753 
	C773.811096,722.355225 774.504211,724.192749 773.670471,727.355835 
	C770.361023,726.959229 767.295837,726.435974 764.211243,726.266479 
	C761.193298,726.100647 758.422241,727.038330 757.401367,730.199890 
	C756.322632,733.540833 758.570679,735.550293 761.072998,737.086670 
	C763.908142,738.827454 766.999512,740.161621 769.782410,741.974976 
	C777.144775,746.772156 777.605408,753.707764 770.773560,760.004883 
z"/>
<path fill="#000000" opacity="1.000000" stroke="none" 
	d="
M435.200928,838.148071 
	C433.323761,823.609009 438.101196,814.565002 448.935822,811.361694 
	C452.549408,810.293396 456.207153,810.548035 459.839020,810.931702 
	C463.053955,811.271240 465.040436,812.980286 464.632538,817.335754 
	C457.054779,815.638733 449.202881,813.764465 443.435425,821.188721 
	C440.503357,824.963013 439.847961,829.405151 440.374847,833.988708 
	C441.029022,839.679382 443.633881,844.132568 449.346283,846.098328 
	C454.414856,847.842529 459.401428,846.188782 464.641296,844.731140 
	C465.249512,849.169678 462.712524,850.383667 459.975494,851.143677 
	C448.618988,854.296875 439.525818,849.603394 435.200928,838.148071 
z"/>
<path fill="#000000" opacity="1.000000" stroke="none" 
	d="
M270.247528,729.566223 
	C270.093811,738.803650 270.037598,747.606323 269.906891,756.407837 
	C269.873566,758.651123 270.369720,761.562195 266.842377,761.522156 
	C263.206635,761.480957 264.023804,758.440613 264.008118,756.297729 
	C263.950867,748.491821 263.921265,740.681641 264.128082,732.879578 
	C264.237366,728.756592 262.980682,726.483032 258.466553,727.003479 
	C257.495544,727.115479 256.473206,726.966797 255.496887,726.803955 
	C254.039902,726.561096 253.043259,725.763428 253.071869,724.152649 
	C253.101471,722.484558 254.178055,721.789612 255.675827,721.782410 
	C263.149109,721.746399 270.622772,721.734558 278.095947,721.775818 
	C279.738770,721.784851 281.089813,722.442566 280.995239,724.401672 
	C280.901947,726.333557 279.381714,726.588440 277.867737,726.964111 
	C275.328156,727.594238 272.034607,725.660217 270.247528,729.566223 
z"/>
<path fill="#000000" opacity="1.000000" stroke="none" 
	d="
M484.943665,811.462280 
	C489.093506,810.994385 489.121918,813.622375 489.119598,816.241516 
	C489.112396,824.392456 489.222534,832.546875 489.014038,840.692932 
	C488.915192,844.553528 490.258331,846.221680 494.202148,845.914551 
	C496.677155,845.721863 499.189148,845.913269 501.679291,846.037598 
	C503.316711,846.119263 504.664551,846.750916 504.546448,848.720276 
	C504.433868,850.597168 503.158752,851.241211 501.471008,851.249023 
	C496.315216,851.272766 491.159271,851.288452 486.003510,851.271667 
	C484.221558,851.265930 483.095215,850.264099 483.090363,848.526428 
	C483.057434,836.730896 482.257324,824.922852 483.562836,813.148865 
	C483.624725,812.590881 484.244934,812.094727 484.943665,811.462280 
z"/>
<path fill="#000000" opacity="1.000000" stroke="none" 
	d="
M637.011719,721.681152 
	C641.164551,721.692932 644.822754,721.663330 648.478882,721.738770 
	C650.124390,721.772705 652.023560,721.709534 652.120850,724.111084 
	C652.227539,726.747864 650.242920,726.857788 648.375549,727.003540 
	C647.548706,727.068115 646.708191,727.100586 645.883911,727.030457 
	C642.442444,726.737366 641.183716,728.271606 641.249573,731.710144 
	C641.405457,739.853271 641.319519,748.002014 641.250244,756.147827 
	C641.230164,758.506775 641.967285,761.823425 638.072510,761.543274 
	C634.521362,761.287842 635.771790,758.044006 635.735962,755.994385 
	C635.599243,748.183044 635.528625,740.362976 635.762451,732.556030 
	C635.881836,728.571533 634.726074,726.522278 630.456787,727.034607 
	C629.480225,727.151794 628.460754,727.042603 627.474976,726.922791 
	C625.783447,726.717102 624.718994,725.885620 624.815796,723.995544 
	C624.906494,722.225098 626.113586,721.811340 627.540771,721.777466 
	C630.531677,721.706299 633.524292,721.709717 637.011719,721.681152 
z"/>
<path fill="#000000" opacity="1.000000" stroke="none" 
	d="
M451.333221,731.373108 
	C451.318787,740.294556 451.307770,748.760437 451.295990,757.226257 
	C451.293091,759.295105 451.291077,761.355469 448.401001,761.465515 
	C445.179993,761.588074 445.688354,759.191833 445.677063,757.303345 
	C445.627533,749.003784 445.480988,740.698486 445.729004,732.406006 
	C445.851746,728.302673 444.476257,726.523438 440.328400,726.975647 
	C439.196411,727.099060 437.999451,726.936401 436.871399,726.710144 
	C435.363983,726.407654 434.652679,725.406738 434.823486,723.815735 
	C434.979614,722.361633 435.940735,721.814941 437.201813,721.810059 
	C444.669220,721.781006 452.136902,721.781250 459.604187,721.825867 
	C461.111786,721.834961 462.120605,722.598022 462.126740,724.263489 
	C462.132751,725.892883 461.143921,726.693970 459.680267,726.871338 
	C458.202789,727.050476 456.699890,727.121216 455.211578,727.087158 
	C452.543152,727.026001 451.113373,728.107300 451.333221,731.373108 
z"/>
</svg>
